<svg width="78" height="26" viewBox="0 0 78 26" fill="none" xmlns="http://www.w3.org/2000/svg">
<path d="M6.57692 21.375C5.70192 21.3437 4.85036 21.1016 4.02223 20.6484C3.20973 20.2109 2.49098 19.5781 1.86598 18.75C1.25661 17.9063 0.780043 16.875 0.436298 15.6563C0.0925481 14.4375 -0.0480769 13.0313 0.0144231 11.4375C0.0769231 9.8437 0.358173 8.4297 0.858173 7.1953C1.3738 5.9609 2.00661 4.9375 2.75661 4.125C3.50661 3.2969 4.32692 2.6875 5.21754 2.2969C6.1238 1.9063 7.01442 1.7578 7.88942 1.8516C8.42067 1.9141 8.88942 2.0625 9.29567 2.2969C9.70192 2.5313 10.0535 2.8203 10.3503 3.1641C10.6472 3.4922 10.8972 3.8516 11.1003 4.2422C11.3035 4.6172 11.4675 4.9844 11.5925 5.3437C11.6863 5.4375 11.7878 5.4844 11.8972 5.4844C12.1941 5.5 12.4597 5.2813 12.6941 4.8281C12.9441 4.3594 13.155 3.5937 13.3269 2.5313L13.9832 2.6016C13.8425 3.1328 13.6863 3.75 13.5144 4.4531C13.3582 5.1406 13.2097 5.8516 13.0691 6.5859C12.9441 7.3203 12.8347 8.0469 12.741 8.7656C12.6628 9.4844 12.6394 10.1328 12.6706 10.7109C12.4363 10.6172 12.2175 10.5547 12.0144 10.5234C11.8113 10.4766 11.6238 10.4453 11.4519 10.4297C11.2644 10.4141 11.0925 10.4141 10.9363 10.4297C10.9675 9.4609 10.9363 8.5313 10.8425 7.6406C10.7644 6.75 10.6082 5.9687 10.3738 5.2969C10.1394 4.6094 9.82692 4.0547 9.4363 3.6328C9.0613 3.2109 8.59254 2.9766 8.03004 2.9297C7.53004 2.8828 6.99098 2.9922 6.41286 3.2578C5.83473 3.5078 5.28786 3.9687 4.77223 4.6406C4.25661 5.2969 3.8113 6.1797 3.4363 7.2891C3.0613 8.3984 2.82692 9.7813 2.73317 11.4375C2.6863 12.3125 2.71754 13.2344 2.82692 14.2031C2.9363 15.1719 3.15504 16.0703 3.48317 16.8984C3.8113 17.7109 4.25661 18.3906 4.81911 18.9375C5.38161 19.4687 6.09254 19.7266 6.95192 19.7109C7.60817 19.6641 8.21754 19.4922 8.78004 19.1953C9.26442 18.9297 9.74102 18.5313 10.2097 18C10.6785 17.4687 11.0144 16.7031 11.2175 15.7031L11.991 16.1719C11.866 16.5781 11.6785 17.0859 11.4285 17.6953C11.1785 18.2891 10.8347 18.8672 10.3972 19.4297C9.97532 19.9922 9.44411 20.4609 8.80348 20.8359C8.17848 21.2266 7.4363 21.4063 6.57692 21.375ZM25.6316 18.8203C25.5847 19.0234 25.5066 19.25 25.3972 19.5C25.2878 19.7344 25.1316 19.9453 24.9285 20.1328C24.7253 20.3359 24.4753 20.4844 24.1785 20.5781C23.8972 20.6875 23.5613 20.6953 23.1706 20.6016C22.78 20.5078 22.4675 20.2891 22.2332 19.9453C22.0144 19.6016 21.8582 19.1641 21.7644 18.6328C21.6238 18.8516 21.4441 19.0859 21.2253 19.3359C21.0222 19.5703 20.7722 19.7813 20.4753 19.9687C20.1941 20.1719 19.866 20.3281 19.491 20.4375C19.1316 20.5625 18.7332 20.6094 18.2956 20.5781C17.7019 20.5313 17.1706 20.3672 16.7019 20.0859C16.2488 19.8203 15.866 19.4766 15.5535 19.0547C15.241 18.6172 15.0066 18.125 14.8503 17.5781C14.7097 17.0313 14.6706 16.4609 14.7332 15.8672C14.7956 15.2734 14.9519 14.7656 15.2019 14.3437C15.4675 13.9219 15.7956 13.5859 16.1863 13.3359C16.5769 13.0703 17.0222 12.8906 17.5222 12.7969C18.0222 12.7031 18.5378 12.6797 19.0691 12.7266C19.7722 12.8047 20.3582 13.0156 20.8269 13.3594C21.2956 13.6875 21.655 14.0547 21.905 14.4609C21.9832 13.7422 22.0066 12.9766 21.9753 12.1641C21.9441 11.3359 21.8191 10.5859 21.6003 9.9141C21.3816 9.2266 21.0456 8.6641 20.5925 8.2266C20.1394 7.7734 19.5222 7.5547 18.741 7.5703C18.1941 7.5703 17.741 7.6719 17.3816 7.875C17.0378 8.0625 16.7566 8.2891 16.5378 8.5547C16.3347 8.8203 16.1941 9.0937 16.116 9.375C16.0378 9.6406 15.9988 9.8516 15.9988 10.0078C15.9988 10.1641 16.0456 10.3437 16.1394 10.5469C16.2332 10.7344 16.366 10.9141 16.5378 11.0859C16.7097 11.2422 16.9128 11.3672 17.1472 11.4609C17.3816 11.5547 17.6472 11.5781 17.9441 11.5313C18.1472 11.5 18.3269 11.4297 18.4832 11.3203C18.6394 11.2109 18.7644 11.0859 18.8582 10.9453C18.9519 10.8047 19.0144 10.6563 19.0456 10.5C19.0925 10.3437 19.116 10.1953 19.116 10.0547C19.116 9.8984 19.0691 9.7656 18.9753 9.6563C18.8816 9.5313 18.7722 9.4375 18.6472 9.375C18.5222 9.3125 18.3816 9.2969 18.2253 9.3281C18.0691 9.3437 17.9285 9.4141 17.8035 9.5391C17.9441 9.5234 18.0847 9.5547 18.2253 9.6328C18.366 9.6953 18.4363 9.8359 18.4363 10.0547C18.4363 10.2266 18.366 10.3594 18.2253 10.4531C18.0847 10.5313 17.9285 10.5625 17.7566 10.5469C17.5847 10.5313 17.4285 10.4609 17.2878 10.3359C17.1472 10.1953 17.0769 9.9844 17.0769 9.7031C17.0769 9.4375 17.1863 9.2109 17.405 9.0234C17.6394 8.8359 17.905 8.7422 18.2019 8.7422C18.5613 8.7422 18.8894 8.8828 19.1863 9.1641C19.4988 9.4453 19.655 9.8359 19.655 10.3359C19.655 10.5078 19.6082 10.6953 19.5144 10.8984C19.4363 11.0859 19.3113 11.2656 19.1394 11.4375C18.9675 11.6094 18.741 11.7578 18.4597 11.8828C18.1785 11.9922 17.8503 12.0469 17.4753 12.0469C17.1003 12.0469 16.7644 11.9766 16.4675 11.8359C16.1706 11.6797 15.9206 11.4922 15.7175 11.2734C15.5144 11.0391 15.3582 10.7891 15.2488 10.5234C15.155 10.2422 15.1082 9.9766 15.1082 9.7266C15.1082 9.4766 15.1863 9.1641 15.3425 8.7891C15.4988 8.3984 15.741 8.0313 16.0691 7.6875C16.4128 7.3437 16.8347 7.0469 17.3347 6.7969C17.8503 6.5469 18.4597 6.4219 19.1628 6.4219C21.0535 6.4219 22.3582 7.0859 23.0769 8.4141C23.7956 9.7266 23.9128 11.6875 23.4285 14.2969C23.241 15.3437 23.1394 16.1953 23.1238 16.8516C23.1082 17.5078 23.1472 18.0313 23.241 18.4219C23.3347 18.8125 23.4675 19.0859 23.6394 19.2422C23.8269 19.3984 24.0222 19.4922 24.2253 19.5234C24.3972 19.5547 24.5613 19.5391 24.7175 19.4766C24.8425 19.4453 24.9597 19.375 25.0691 19.2656C25.1941 19.1406 25.28 18.9531 25.3269 18.7031L25.6316 18.8203ZM21.6706 17.625C21.655 17.0625 21.6785 16.4687 21.741 15.8437C21.616 15.3594 21.3582 14.9141 20.9675 14.5078C20.5925 14.0859 20.1628 13.8359 19.6785 13.7578C19.3191 13.6953 18.9441 13.7031 18.5535 13.7813C18.1785 13.8437 17.8425 13.9844 17.5456 14.2031C17.2488 14.4063 17.0144 14.6953 16.8425 15.0703C16.6706 15.4453 16.6082 15.9063 16.655 16.4531C16.7332 17.2969 16.9675 17.9375 17.3582 18.375C17.7644 18.8125 18.3582 19.0078 19.1394 18.9609C19.7332 18.9297 20.2332 18.7813 20.6394 18.5156C21.0613 18.2344 21.405 17.9375 21.6706 17.625ZM31.2097 18.9141C31.5691 18.9141 31.905 18.7891 32.2175 18.5391C32.53 18.2891 32.7488 17.8672 32.8738 17.2734L33.366 17.4609C33.3191 17.8359 33.1706 18.2187 32.9206 18.6094C32.6706 18.9844 32.3503 19.3047 31.9597 19.5703C31.5691 19.8359 31.1238 20.0078 30.6238 20.0859C30.1394 20.1641 29.6394 20.0859 29.1238 19.8516C28.5613 19.5859 28.155 19.2422 27.905 18.8203C27.655 18.3984 27.4988 17.9141 27.4363 17.3672C27.3738 16.8047 27.366 16.2031 27.4128 15.5625C27.4597 14.9063 27.4832 14.2266 27.4832 13.5234C27.4832 13.1172 27.4753 12.6406 27.4597 12.0937C27.4597 11.5313 27.4441 10.9375 27.4128 10.3125C27.3972 9.6875 27.366 9.0469 27.3191 8.3906C27.2722 7.7187 27.2253 7.0625 27.1785 6.4219C26.6472 6.4844 26.1394 6.5625 25.655 6.6563C25.1863 6.7344 24.7878 6.8359 24.4597 6.9609C24.4441 6.8203 24.4441 6.7109 24.4597 6.6328C24.4597 6.5547 24.4675 6.4844 24.4832 6.4219C24.4832 6.3437 24.4832 6.2656 24.4832 6.1875C24.4832 6.0937 24.4675 5.9687 24.4363 5.8125C24.8113 5.7813 25.2253 5.75 25.6785 5.7187C26.1472 5.6875 26.6238 5.6563 27.1082 5.625C27.0925 5.4063 27.0769 5.1953 27.0613 4.9922C27.0456 4.7734 27.0222 4.5625 26.991 4.3594C26.9128 3.625 26.7644 3.0391 26.5456 2.6016C26.3425 2.1641 26.116 1.8281 25.866 1.5937C25.616 1.3594 25.3816 1.2031 25.1628 1.125C24.9441 1.0313 24.78 0.9687 24.6706 0.9375L24.741 0.4922C25.0378 0.6172 25.405 0.7031 25.8425 0.75C26.28 0.7813 26.7332 0.7813 27.2019 0.75C27.6863 0.7031 28.155 0.625 28.6082 0.5156C29.0769 0.4063 29.4832 0.2656 29.8269 0.0937004C29.6706 0.5313 29.53 1.2266 29.405 2.1797C29.2956 3.1328 29.2019 4.2422 29.1238 5.5078C29.9363 5.4609 30.5222 5.3984 30.8816 5.3203C30.8035 5.4141 30.7644 5.5703 30.7644 5.7891C30.7644 5.9922 30.7878 6.1797 30.8347 6.3516C30.5691 6.3203 30.2878 6.3047 29.991 6.3047C29.6941 6.2891 29.3894 6.2813 29.0769 6.2813C29.03 7.1875 28.9988 8.1328 28.9832 9.1172C28.9675 10.1016 28.9753 11.0781 29.0066 12.0469C29.0535 13 29.116 13.9375 29.1941 14.8594C29.2878 15.7656 29.405 16.6016 29.5456 17.3672C29.6706 17.9141 29.8894 18.3047 30.2019 18.5391C30.5144 18.7734 30.8503 18.8984 31.2097 18.9141ZM53.4753 4.5C53.1472 4.7187 52.8269 4.9609 52.5144 5.2266C52.2019 5.4922 51.9285 5.8359 51.6941 6.2578C51.4597 6.6797 51.28 7.2109 51.155 7.8516C51.03 8.4766 50.9988 9.2734 51.0613 10.2422C51.0925 10.8828 51.1238 11.5781 51.155 12.3281C51.2019 13.0625 51.2097 13.8047 51.1785 14.5547C51.1472 15.3047 51.0613 16.0313 50.9206 16.7344C50.78 17.4219 50.5456 18.0391 50.2175 18.5859C49.8894 19.1328 49.4519 19.5781 48.905 19.9219C48.3582 20.2656 47.6706 20.4531 46.8425 20.4844C46.2332 20.5156 45.6941 20.4297 45.2253 20.2266C44.7722 20.0234 44.3738 19.75 44.03 19.4063C43.7019 19.0469 43.4285 18.6406 43.2097 18.1875C42.991 17.7187 42.8113 17.2344 42.6706 16.7344C42.4363 17.375 42.155 17.9687 41.8269 18.5156C41.5144 19.0625 41.1003 19.5 40.5847 19.8281C40.0847 20.1719 39.4753 20.3672 38.7566 20.4141C38.0535 20.4766 37.2019 20.3359 36.2019 19.9922C35.4675 19.7422 34.8894 19.3828 34.4675 18.9141C34.0456 18.4297 33.7332 17.8906 33.53 17.2969C33.3269 16.6875 33.2097 16.0547 33.1785 15.3984C33.1472 14.7266 33.155 14.0859 33.2019 13.4766C33.2488 12.8516 33.3191 12.2813 33.4128 11.7656C33.5066 11.25 33.5769 10.8359 33.6238 10.5234C33.78 9.5234 33.905 8.5781 33.9988 7.6875C34.1082 6.7813 34.1238 5.9766 34.0456 5.2734C33.9675 4.5547 33.7644 3.9609 33.4363 3.4922C33.1238 3.0078 32.6238 2.6875 31.9363 2.5313L32.0535 2.0625C32.3503 2.1094 32.7019 2.1641 33.1082 2.2266C33.5144 2.2891 33.9363 2.3437 34.3738 2.3906C34.8113 2.4219 35.241 2.4375 35.6628 2.4375C36.1003 2.4219 36.491 2.375 36.8347 2.2969C36.7566 2.9063 36.6472 3.6641 36.5066 4.5703C36.3816 5.4609 36.2566 6.4141 36.1316 7.4297C36.0066 8.4453 35.8894 9.4844 35.78 10.5469C35.6863 11.5937 35.6316 12.5781 35.616 13.5C35.5691 15.3594 35.78 16.7187 36.2488 17.5781C36.7332 18.4375 37.5769 18.8594 38.78 18.8437C39.3894 18.8281 39.8816 18.5625 40.2566 18.0469C40.6316 17.5313 40.9206 16.8906 41.1238 16.125C41.3425 15.3594 41.491 14.5469 41.5691 13.6875C41.6472 12.8125 41.7019 12.0156 41.7332 11.2969C41.7488 10.5781 41.7488 9.8828 41.7332 9.2109C41.7175 8.5234 41.6706 7.8906 41.5925 7.3125C41.5144 6.7344 41.405 6.2187 41.2644 5.7656C41.1394 5.2969 40.9832 4.9219 40.7956 4.6406C41.2332 4.625 41.6082 4.6328 41.9206 4.6641C42.2332 4.6953 42.5222 4.7344 42.7878 4.7813C43.0691 4.8125 43.3582 4.8359 43.655 4.8516C43.9519 4.8672 44.3035 4.8359 44.7097 4.7578C44.5378 5.2422 44.3816 5.7422 44.241 6.2578C44.1003 6.7734 43.9753 7.3359 43.866 7.9453C43.7722 8.5547 43.6941 9.2344 43.6316 9.9844C43.5847 10.7187 43.5613 11.5547 43.5613 12.4922C43.5769 13.4297 43.6238 14.2813 43.7019 15.0469C43.7956 15.8125 43.9519 16.4609 44.1706 16.9922C44.405 17.5078 44.7175 17.8906 45.1082 18.1406C45.5144 18.375 46.0378 18.4297 46.6785 18.3047C47.3191 18.1641 47.8191 17.8437 48.1785 17.3437C48.5378 16.8437 48.7956 16.2266 48.9519 15.4922C49.1238 14.7578 49.2175 13.9375 49.2332 13.0313C49.2644 12.1094 49.2644 11.1719 49.2332 10.2187C49.2019 9.25 49.1472 8.4297 49.0691 7.7578C48.991 7.0703 48.866 6.5078 48.6941 6.0703C48.5378 5.6328 48.3347 5.3047 48.0847 5.0859C47.8347 4.8516 47.53 4.7031 47.1706 4.6406L47.241 4.125C48.1941 4.2813 49.1785 4.3359 50.1941 4.2891C51.2097 4.2266 52.2722 4.0469 53.3816 3.75L53.4753 4.5ZM53.4753 19.5703C53.8347 19.4453 54.1316 19.2813 54.366 19.0781C54.6003 18.875 54.78 18.6719 54.905 18.4687C55.0613 18.2344 55.1628 17.9922 55.2097 17.7422C55.5535 16.1484 55.7253 14.6328 55.7253 13.1953C55.7253 11.7422 55.616 10.5 55.3972 9.4687C55.3347 9.1406 55.2175 8.8359 55.0456 8.5547C54.905 8.3203 54.7097 8.1016 54.4597 7.8984C54.2097 7.6797 53.8894 7.5391 53.4988 7.4766L53.4753 7.1016C53.7878 7.1328 54.0769 7.1563 54.3425 7.1719C54.6238 7.1719 54.866 7.1719 55.0691 7.1719H55.7253C55.9128 7.1875 56.1003 7.1953 56.2878 7.1953C56.4597 7.2109 56.6316 7.2187 56.8035 7.2187C56.991 7.2187 57.1706 7.2344 57.3425 7.2656C57.2956 7.8281 57.2566 8.4063 57.2253 9C57.1941 9.5781 57.1706 10.1016 57.155 10.5703C57.1238 11.1172 57.1082 11.6484 57.1082 12.1641C57.0769 12.7422 57.0535 13.375 57.0378 14.0625C57.0222 14.7344 57.03 15.375 57.0613 15.9844C57.0925 16.5937 57.1472 17.1328 57.2253 17.6016C57.3035 18.0547 57.4285 18.3516 57.6003 18.4922C57.6941 18.5547 57.8191 18.6172 57.9753 18.6797C58.1003 18.7422 58.2644 18.8047 58.4675 18.8672C58.6863 18.9297 58.9519 18.9922 59.2644 19.0547L59.2878 19.4531C58.9753 19.4375 58.6706 19.4375 58.3738 19.4531C58.0925 19.4531 57.8425 19.4531 57.6238 19.4531C57.3582 19.4687 57.1082 19.4766 56.8738 19.4766C56.5456 19.4922 56.1941 19.5234 55.8191 19.5703C55.5066 19.6016 55.155 19.6406 54.7644 19.6875C54.3738 19.7344 53.9988 19.7891 53.6394 19.8516L53.4753 19.5703ZM55.8894 5.5313C55.405 5.5625 55.03 5.4531 54.7644 5.2031C54.4988 4.9375 54.3503 4.6406 54.3191 4.3125C54.2878 3.9844 54.3738 3.6797 54.5769 3.3984C54.7956 3.1016 55.1394 2.9219 55.6082 2.8594C56.0925 2.7969 56.4753 2.8984 56.7566 3.1641C57.0535 3.4297 57.2253 3.7344 57.2722 4.0781C57.3191 4.4063 57.2332 4.7266 57.0144 5.0391C56.7956 5.3359 56.4206 5.5 55.8894 5.5313ZM70.9832 25.6172C70.4363 25.6172 69.8972 25.5313 69.366 25.3594C68.8347 25.1875 68.3738 24.8984 67.9832 24.4922C67.5925 24.1016 67.3035 23.5703 67.116 22.8984C66.9285 22.2422 66.905 21.4219 67.0456 20.4375C67.155 19.6875 67.241 18.9531 67.3035 18.2344C67.3816 17.5 67.405 16.8281 67.3738 16.2187C67.3425 15.5937 67.2332 15.0469 67.0456 14.5781C66.8582 14.0937 66.5535 13.7187 66.1316 13.4531C65.741 13.1875 65.2332 13.0313 64.6082 12.9844C63.9832 12.9375 63.2253 13.0469 62.3347 13.3125C62.366 13.9844 62.405 14.6172 62.4519 15.2109C62.5144 15.8047 62.5847 16.3359 62.6628 16.8047C62.7097 17.2734 62.7956 17.6797 62.9206 18.0234C63.0144 18.3203 63.1472 18.5859 63.3191 18.8203C63.491 19.0547 63.7097 19.1406 63.9753 19.0781L63.8113 19.6641C63.4988 19.5547 63.1394 19.4766 62.7332 19.4297C62.3425 19.3828 61.9206 19.375 61.4675 19.4063C61.0144 19.4375 60.5456 19.5078 60.0613 19.6172C59.5925 19.7266 59.1394 19.8906 58.7019 20.1094L58.5847 19.7109C58.8191 19.5391 59.03 19.3828 59.2175 19.2422C59.405 19.1016 59.5691 18.9219 59.7097 18.7031C59.866 18.4844 59.9988 18.2031 60.1082 17.8594C60.2175 17.5156 60.3113 17.0547 60.3894 16.4766C60.4675 15.8984 60.5613 15.1484 60.6706 14.2266C60.7956 13.2891 60.905 12.2813 60.9988 11.2031C61.0925 10.125 61.155 9.0156 61.1863 7.875C61.2175 6.7344 61.1863 5.6719 61.0925 4.6875C60.9988 3.9531 60.8582 3.2891 60.6706 2.6953C60.5925 2.4453 60.491 2.2031 60.366 1.9687C60.2566 1.7187 60.1238 1.5 59.9675 1.3125C59.8113 1.1094 59.6316 0.9453 59.4285 0.8203C59.241 0.6953 59.03 0.625 58.7956 0.6094V0.2578C59.0925 0.3047 59.4285 0.3594 59.8035 0.4219C60.1941 0.4687 60.6316 0.5 61.116 0.5156C61.616 0.5313 62.1706 0.5078 62.78 0.4453C63.405 0.3672 64.1003 0.2187 64.866 0V0.4687C64.5847 0.625 64.3269 0.7891 64.0925 0.9609C63.8582 1.1172 63.6394 1.3437 63.4363 1.6406C63.2488 1.9375 63.0847 2.3281 62.9441 2.8125C62.8035 3.2969 62.7019 3.9375 62.6394 4.7344C62.5613 5.4844 62.4753 6.3516 62.3816 7.3359C62.3035 8.3203 62.2644 9.3359 62.2644 10.3828C62.2644 10.7578 62.2644 11.1406 62.2644 11.5313C62.2644 11.9063 62.28 12.2813 62.3113 12.6563C63.0613 12.3906 63.7332 12.0469 64.3269 11.625C64.9206 11.1875 65.4206 10.7422 65.8269 10.2891C66.2332 9.8203 66.5456 9.3672 66.7644 8.9297C66.9832 8.4922 67.0925 8.1172 67.0925 7.8047C67.0613 7.5703 67.0066 7.3594 66.9285 7.1719C66.8503 7.0156 66.7332 6.875 66.5769 6.75C66.4206 6.6094 66.2097 6.5313 65.9441 6.5156L66.0144 5.9297C66.9832 6.0547 67.9128 6.1094 68.8035 6.0937C69.6941 6.0625 70.5847 5.8516 71.4753 5.4609L71.5691 5.9297C71.3347 6.0391 71.1238 6.1484 70.9363 6.2578C70.7488 6.3516 70.5691 6.4687 70.3972 6.6094C70.241 6.75 70.0847 6.9375 69.9285 7.1719C69.7722 7.3906 69.6003 7.6797 69.4128 8.0391C69.2722 8.3359 69.0847 8.6797 68.8503 9.0703C68.616 9.4609 68.3347 9.8516 68.0066 10.2422C67.6941 10.6172 67.3269 10.9766 66.905 11.3203C66.4988 11.6484 66.0535 11.9141 65.5691 12.1172C66.8191 12.0859 67.7956 12.4141 68.4988 13.1016C69.2019 13.7734 69.6003 14.8906 69.6941 16.4531C69.7253 17.25 69.655 18.0547 69.4832 18.8672C69.3113 19.6641 69.1628 20.4141 69.0378 21.1172C68.9128 21.8359 68.866 22.4766 68.8972 23.0391C68.9285 23.6172 69.1628 24.0703 69.6003 24.3984C70.0222 24.7266 70.4363 24.9219 70.8425 24.9844C71.2644 25.0625 71.655 25.0313 72.0144 24.8906C72.3738 24.7656 72.6863 24.5469 72.9519 24.2344C73.2332 23.9219 73.4519 23.5547 73.6082 23.1328C73.7488 22.7109 73.8113 22.3437 73.7956 22.0313C73.78 21.7344 73.7097 21.4844 73.5847 21.2813C73.4597 21.0937 73.2956 20.9531 73.0925 20.8594C72.905 20.7656 72.7019 20.7187 72.4832 20.7187C72.0456 20.7187 71.655 20.8828 71.3113 21.2109C70.9675 21.5391 70.78 21.9687 70.7488 22.5C70.7332 22.6875 70.7566 22.8437 70.8191 22.9687C70.8816 23.0937 70.9597 23.1875 71.0535 23.25C71.1628 23.3281 71.2722 23.3828 71.3816 23.4141C71.5066 23.4453 71.6238 23.4453 71.7332 23.4141C71.9363 23.3828 72.1394 23.2656 72.3425 23.0625C72.5613 22.8594 72.6628 22.6172 72.6472 22.3359C72.5535 22.3984 72.4363 22.4531 72.2956 22.5C72.155 22.5625 72.0222 22.5937 71.8972 22.5937C71.7878 22.5937 71.6863 22.5547 71.5925 22.4766C71.5144 22.4141 71.4753 22.2891 71.4753 22.1016C71.4753 21.8828 71.5535 21.7109 71.7097 21.5859C71.8816 21.4766 72.0691 21.4219 72.2722 21.4219C72.4753 21.4219 72.6628 21.4844 72.8347 21.6094C73.0066 21.75 73.0925 21.9531 73.0925 22.2187C73.1082 22.7344 72.9363 23.1641 72.5769 23.5078C72.2332 23.8672 71.8269 24.0469 71.3582 24.0469C71.0144 24.0469 70.741 23.9453 70.5378 23.7422C70.3503 23.5547 70.2175 23.3125 70.1394 23.0156C70.0769 22.7344 70.0769 22.4219 70.1394 22.0781C70.2175 21.7344 70.3582 21.4141 70.5613 21.1172C70.7644 20.8359 71.03 20.5937 71.3582 20.3906C71.7019 20.2031 72.1082 20.1094 72.5769 20.1094C72.905 20.1094 73.1785 20.1719 73.3972 20.2969C73.616 20.4219 73.7878 20.5781 73.9128 20.7656C74.0535 20.9687 74.155 21.1875 74.2175 21.4219C74.28 21.6563 74.3113 21.8906 74.3113 22.125C74.3269 22.5781 74.2644 23.0078 74.1238 23.4141C73.9832 23.8359 73.7722 24.2109 73.491 24.5391C73.2097 24.8672 72.8582 25.125 72.4363 25.3125C72.0144 25.5156 71.53 25.6172 70.9832 25.6172ZM71.3347 19.5703C71.6941 19.4453 71.991 19.2813 72.2253 19.0781C72.4597 18.875 72.6394 18.6719 72.7644 18.4687C72.9206 18.2344 73.0222 17.9922 73.0691 17.7422C73.4128 16.1484 73.5847 14.6328 73.5847 13.1953C73.5847 11.7422 73.4753 10.5 73.2566 9.4687C73.1941 9.1406 73.0769 8.8359 72.905 8.5547C72.7644 8.3203 72.5691 8.1016 72.3191 7.8984C72.0691 7.6797 71.7488 7.5391 71.3582 7.4766L71.3347 7.1016C71.6472 7.1328 71.9363 7.1563 72.2019 7.1719C72.4832 7.1719 72.7253 7.1719 72.9285 7.1719H73.5847C73.7722 7.1875 73.9597 7.1953 74.1472 7.1953C74.3191 7.2109 74.491 7.2187 74.6628 7.2187C74.8503 7.2187 75.03 7.2344 75.2019 7.2656C75.155 7.8281 75.116 8.4063 75.0847 9C75.0535 9.5781 75.03 10.1016 75.0144 10.5703C74.9832 11.1172 74.9675 11.6484 74.9675 12.1641C74.9363 12.7422 74.9128 13.375 74.8972 14.0625C74.8816 14.7344 74.8894 15.375 74.9206 15.9844C74.9519 16.5937 75.0066 17.1328 75.0847 17.6016C75.1628 18.0547 75.2878 18.3516 75.4597 18.4922C75.5535 18.5547 75.6785 18.6172 75.8347 18.6797C75.9597 18.7422 76.1238 18.8047 76.3269 18.8672C76.5456 18.9297 76.8113 18.9922 77.1238 19.0547L77.1472 19.4531C76.8347 19.4375 76.53 19.4375 76.2332 19.4531C75.9519 19.4531 75.7019 19.4531 75.4832 19.4531C75.2175 19.4687 74.9675 19.4766 74.7332 19.4766C74.405 19.4922 74.0535 19.5234 73.6785 19.5703C73.366 19.6016 73.0144 19.6406 72.6238 19.6875C72.2332 19.7344 71.8582 19.7891 71.4988 19.8516L71.3347 19.5703ZM73.7488 5.5313C73.2644 5.5625 72.8894 5.4531 72.6238 5.2031C72.3582 4.9375 72.2097 4.6406 72.1785 4.3125C72.1472 3.9844 72.2332 3.6797 72.4363 3.3984C72.655 3.1016 72.9988 2.9219 73.4675 2.8594C73.9519 2.7969 74.3347 2.8984 74.616 3.1641C74.9128 3.4297 75.0847 3.7344 75.1316 4.0781C75.1785 4.4063 75.0925 4.7266 74.8738 5.0391C74.655 5.3359 74.28 5.5 73.7488 5.5313Z" fill="#fff"/>
</svg>
